# xmcd CD database file
#
# Track frame offsets:
#	150
#	25176
#	45750
#	68036
#	94010
#	103946
#	137859
#	163007
#	170975
#	190897
#
# Disc length: 2894 seconds
#
# Revision: 2
# Processed by: cddbd v1.5.1PL0 Copyright (c) Steve Scherf et al.
# Submitted via: CDex 1.51
#
DISCID=850b4c0a
DTITLE=Thomas Wallisch, Gustavo Casenave - Bichozwei
DYEAR=1996
DGENRE=Jazz
TTITLE0=Still there
TTITLE1=Fragil timer from the past future
TTITLE2=Decroly
TTITLE3=T.X.Trano
TTITLE4=6:00 A.M.
TTITLE5=Te Lo Digo Yo
TTITLE6=A long time
TTITLE7=Bichos
TTITLE8=Alomost gone
TTITLE9=Soon
EXTD=YEAR: 1996
EXTT0=
EXTT1=
EXTT2=
EXTT3=
EXTT4=
EXTT5=
EXTT6=
EXTT7=
EXTT8=
EXTT9=
PLAYORDER=
